<?xml version="1.0" standalone="no"?>
<!DOCTYPE svg PUBLIC "-//W3C//DTD SVG 20010904//EN"
 "http://www.w3.org/TR/2001/REC-SVG-20010904/DTD/svg10.dtd">
<svg version="1.0" xmlns="http://www.w3.org/2000/svg"
 width="284.000000pt" height="284.000000pt" viewBox="0 0 284.000000 284.000000"
 preserveAspectRatio="xMidYMid meet">
<metadata>
Created by potrace 1.14, written by Peter Selinger 2001-2017
</metadata>
<g transform="translate(0.000000,284.000000) scale(0.100000,-0.100000)"
fill="#000000" stroke="none">
<path d="M1380 2530 c0 -5 14 -10 30 -10 17 0 30 5 30 10 0 6 -13 10 -30 10
-16 0 -30 -4 -30 -10z"/>
<path d="M1496 2507 c-18 -20 -30 -27 -33 -19 -6 15 -35 16 -50 1 -6 -6 -44
-11 -84 -11 -41 0 -83 -3 -94 -8 -56 -21 -95 -30 -132 -30 -33 0 -48 -6 -71
-30 -17 -16 -39 -30 -50 -30 -11 0 -22 -5 -24 -11 -5 -14 -38 0 -38 17 0 8 10
14 24 14 21 0 44 26 33 37 -4 4 -37 -8 -84 -30 -34 -15 -39 -39 -6 -31 22 6
25 4 20 -10 -4 -10 -7 -20 -7 -22 0 -2 -7 -4 -15 -4 -8 0 -34 -18 -57 -40 -24
-22 -49 -40 -55 -40 -7 0 -13 -4 -13 -10 0 -5 -7 -10 -16 -10 -20 0 -44 -24
-44 -44 0 -14 -18 -21 -43 -17 -4 1 -11 -7 -14 -16 -8 -22 -100 -113 -131
-130 -12 -7 -29 -13 -37 -13 -21 0 -19 -9 8 -30 l22 -18 -21 -24 c-18 -21 -51
-85 -76 -148 -6 -14 -14 -33 -19 -42 -5 -10 -9 -40 -9 -68 0 -27 -4 -50 -10
-50 -5 0 -10 -9 -10 -20 0 -11 -4 -20 -10 -20 -5 0 -10 -19 -10 -43 0 -30 -6
-50 -21 -66 -14 -15 -19 -30 -15 -46 4 -14 0 -29 -9 -39 -20 -20 -19 -33 5
-41 17 -5 20 -15 20 -71 0 -46 -5 -70 -16 -81 -8 -9 -13 -22 -10 -30 3 -8 6
-21 6 -29 0 -8 7 -14 15 -14 8 0 15 -9 15 -19 0 -11 4 -22 9 -25 19 -12 49
-85 44 -105 -4 -15 3 -30 26 -51 17 -17 31 -37 31 -44 0 -8 5 -18 10 -21 6 -3
10 -19 10 -34 0 -21 16 -45 63 -94 34 -36 92 -97 129 -136 36 -39 69 -71 72
-71 3 0 20 -13 38 -30 17 -16 35 -30 40 -30 5 0 18 -9 30 -20 12 -11 28 -20
35 -20 7 0 13 -4 13 -10 0 -5 9 -10 20 -10 11 0 20 -4 20 -10 0 -5 9 -10 19
-10 11 0 23 -4 26 -10 3 -5 17 -10 31 -10 13 0 24 -4 24 -10 0 -5 11 -10 24
-10 14 0 27 -4 30 -9 7 -11 62 -21 154 -28 77 -5 126 7 136 33 7 19 35 18 42
-1 4 -8 17 -15 29 -15 13 0 36 -5 51 -10 21 -8 33 -6 61 10 25 14 52 20 99 20
50 0 76 6 112 25 26 14 54 25 63 25 9 0 31 13 49 30 18 16 39 30 47 30 31 0
107 44 149 86 25 24 49 44 55 44 13 0 99 89 99 103 0 5 8 17 18 26 23 22 42
57 42 79 0 11 12 32 28 48 32 34 92 149 96 184 1 14 7 34 13 45 16 30 46 193
47 255 1 30 6 58 11 63 7 4 6 10 -1 15 -6 4 -11 38 -12 75 -2 51 -7 76 -22 97
-23 32 -25 51 -8 68 10 10 10 17 0 32 -6 11 -12 29 -12 40 0 11 -8 39 -19 63
-10 23 -24 57 -31 75 -7 17 -16 32 -21 32 -5 0 -9 9 -9 20 0 11 -4 20 -10 20
-5 0 -10 9 -10 20 0 11 -4 20 -10 20 -5 0 -10 13 -10 28 0 16 -8 34 -20 42
-11 8 -20 19 -20 25 0 13 -52 65 -64 65 -17 0 -76 75 -76 97 0 16 -6 23 -20
23 -11 0 -20 4 -20 9 0 5 -9 12 -20 16 -11 3 -44 31 -75 61 -31 30 -61 54 -68
54 -7 0 -19 9 -27 20 -8 11 -22 20 -32 20 -10 0 -18 5 -18 10 0 6 -9 10 -19
10 -11 0 -23 5 -26 11 -4 6 -14 8 -22 5 -9 -4 -26 4 -40 18 -21 21 -28 23 -49
14 -13 -6 -23 -18 -22 -27 3 -17 -18 -18 -114 -5 -55 7 -60 17 -18 36 33 14
40 28 13 27 -10 0 -31 -15 -47 -32z m-436 -137 c0 -5 -4 -10 -10 -10 -5 0 -10
5 -10 10 0 6 5 10 10 10 6 0 10 -4 10 -10z m408 -2 c9 -9 15 -9 24 0 14 14 68
16 68 2 0 -6 28 -10 63 -10 34 0 80 -7 102 -16 22 -8 48 -17 58 -21 9 -3 17
-9 17 -14 0 -5 9 -9 20 -9 11 0 20 -4 20 -10 0 -5 8 -10 18 -10 10 0 24 -9 32
-20 8 -11 20 -20 27 -20 19 0 199 -184 240 -245 20 -30 40 -55 45 -55 15 0 38
-27 38 -44 0 -9 5 -16 10 -16 6 0 10 -11 10 -25 0 -14 9 -35 19 -46 10 -11 21
-33 24 -47 3 -15 11 -47 18 -72 22 -80 12 -450 -12 -450 -5 0 -9 -10 -9 -23 0
-13 -9 -42 -20 -65 -11 -22 -20 -47 -20 -55 0 -7 -13 -26 -30 -42 -16 -16 -30
-35 -30 -42 0 -7 -4 -13 -9 -13 -4 0 -14 -20 -21 -44 -7 -25 -20 -53 -29 -63
-9 -10 -27 -33 -41 -52 -29 -42 -109 -121 -122 -121 -6 0 -22 -12 -36 -28 -48
-49 -84 -72 -116 -72 -33 0 -96 -47 -109 -82 -6 -18 -64 -25 -156 -20 -19 1
-37 -2 -40 -6 -21 -27 -221 -47 -221 -22 0 6 -22 10 -49 10 -28 0 -53 4 -56
10 -3 6 -17 10 -31 10 -13 0 -24 5 -24 10 0 6 -21 10 -46 10 -41 0 -81 12 -94
29 -10 13 -148 54 -158 47 -6 -3 -21 -2 -34 3 -31 12 -148 128 -148 146 0 8
-4 15 -10 15 -5 0 -10 6 -10 13 0 7 -8 22 -17 33 -10 10 -24 31 -32 47 -8 15
-18 27 -23 27 -4 0 -8 15 -8 34 0 19 -4 38 -10 41 -5 3 -10 17 -10 30 0 13 -4
27 -10 30 -5 3 -10 19 -10 34 0 15 -4 31 -9 37 -20 21 -39 330 -22 347 6 6 11
33 11 59 0 29 4 48 11 48 8 0 10 14 6 40 -4 34 -1 45 19 65 13 13 24 35 24 49
0 23 33 94 49 106 4 3 15 21 24 41 9 20 32 53 52 74 19 22 35 44 35 50 0 6 9
17 20 25 11 8 20 22 20 32 0 10 5 18 10 18 6 0 10 9 10 20 0 16 7 20 30 20 21
0 30 5 30 16 0 17 23 44 39 44 6 0 27 17 49 38 26 26 48 38 72 39 18 1 36 6
39 10 7 10 48 30 79 38 12 4 22 11 22 16 0 5 6 9 14 9 7 0 19 7 26 15 7 8 28
15 46 15 19 0 34 5 34 10 0 6 26 10 58 10 31 0 64 5 72 10 21 13 64 12 78 -2z
m-730 -225 c-4 -22 -58 -31 -58 -10 0 20 10 27 37 27 18 0 24 -5 21 -17z"/>
<path d="M1093 2503 c-20 -8 -15 -23 7 -23 11 0 20 7 20 15 0 15 -6 17 -27 8z"/>
<path d="M653 2223 c-14 -5 -18 -33 -5 -33 4 0 14 5 22 10 17 11 2 30 -17 23z"/>
<path d="M260 1500 c0 -13 7 -20 20 -20 24 0 25 6 6 26 -20 19 -26 18 -26 -6z"/>
<path d="M249 1433 c0 -5 -2 -16 -4 -25 -2 -10 1 -20 6 -24 5 -3 9 4 9 15 0
12 5 21 10 21 6 0 10 5 10 10 0 11 -30 14 -31 3z"/>
</g>
</svg>
